<svg width="238" height="70" viewBox="0 0 238 70" fill="none" xmlns="http://www.w3.org/2000/svg">
<path d="M14.6641 45.0754C17.556 43.3123 20.4566 41.5597 23.1913 39.5851C26.1356 37.4586 28.9017 35.0804 31.4407 32.4611C32.4996 31.3689 33.6459 30.3397 34.5737 29.1428C37.2577 25.6812 39.7302 22.0781 41.2155 17.9019C41.2225 17.8809 41.1945 17.8495 41.1299 17.6957C40.4467 18.9643 39.3458 19.7961 38.6032 20.9511C38.0195 21.8597 37.2175 22.6373 36.4574 23.4184C34.0757 25.8682 31.5927 28.2044 28.9174 30.3432C25.4716 33.0971 21.8825 35.6343 18.0453 37.8115C16.0637 38.9368 14.0473 40.001 11.9993 41.004C11.3493 41.322 11.04 41.1473 10.8181 40.5637C10.1803 38.8914 9.78539 37.151 9.4132 35.4071C8.65659 31.8704 8.19353 28.2936 7.96987 24.68C7.76892 21.4299 7.74446 18.1867 7.9489 14.9366C7.98035 14.4333 8.11665 14.3582 8.6129 14.3774C12.6004 14.5295 16.5722 14.4386 20.5283 13.7676C22.5063 13.4321 24.3708 12.7279 26.3086 12.2911C27.6401 11.9905 28.8423 11.3859 30.0882 10.9019C31.7936 10.2396 33.41 9.34498 35.056 8.5342C35.4107 8.35946 35.699 8.25986 36.0957 8.49226C38.1908 9.71892 40.4292 10.6922 42.6868 11.5187C45.9649 12.7174 49.3338 13.7117 52.8426 14.0664C54.2003 14.2044 55.5597 14.3268 57.0275 14.4683C51.4883 21.5522 45.2834 27.8637 38.0423 33.1286C30.8728 38.3427 23.2227 42.5976 14.6641 45.0754Z" fill="#3ABFE0"/>
<path d="M61.8396 31.0684C60.7318 32.8717 59.5401 34.6103 58.1859 36.2459C57.2475 37.3782 56.4839 38.6555 55.4862 39.7494C53.4994 41.9284 51.6419 44.2279 49.4629 46.2269C45.3199 50.0292 41.0388 53.648 36.0833 56.3792C35.6045 56.643 36.1427 56.9086 35.5031 57.2389C36.2388 57.335 35.8211 57.2476 36.3366 57.0414C39.0049 55.9738 41.7168 55.018 44.2505 53.6218C50.0186 50.4451 54.9794 46.2723 59.4562 41.488C59.6344 41.2975 59.8144 41.1071 59.9996 40.9219C60.0346 40.8869 60.0975 40.8799 60.1569 40.8555C60.3421 40.9848 60.2582 41.1682 60.2128 41.3115C57.6337 49.2079 53.6951 56.2464 47.2018 61.6231C44.0146 64.2616 40.443 66.1855 36.3174 66.9351C35.0348 67.1675 33.8484 66.7324 32.6689 66.3672C27.3027 64.7054 23.088 61.3749 19.4901 57.1707C19.1145 56.7321 18.765 56.2708 18.3386 55.7396C20.5753 55.2207 22.7193 54.693 24.8249 54.0255C33.1477 51.3887 40.6701 47.1932 47.8466 42.3005C50.555 40.4536 53.1062 38.4126 55.6661 36.3752C57.7944 34.682 59.6903 32.7371 61.7068 30.9216C61.7505 30.9723 61.7959 31.0212 61.8396 31.0684Z" fill="#3ABFE0"/>
<path d="M59.5925 8.70369C64.6599 6.33075 69.6312 4.0015 74.6951 1.6303C74.1132 5.20544 73.6606 8.7002 73.1155 12.1827C72.8429 13.9179 72.4637 15.6425 72.3274 17.4004C72.3134 17.5839 72.4008 17.8407 72.1719 17.9526C71.8923 18.0889 71.7735 17.8145 71.597 17.6817C70.8334 17.1051 70.0506 16.5529 69.3027 15.9571C68.9113 15.646 68.7156 15.5901 68.408 16.1038C66.7235 18.9224 64.7298 21.526 62.5543 23.974C60.8052 25.9433 59.0403 27.9056 57.092 29.6897C51.8481 34.4933 46.2215 38.7848 40.1284 42.4596C35.774 45.0859 31.2553 47.3732 26.4622 49.0926C21.6849 50.8068 16.8027 52.0999 11.7248 52.4825C8.64591 52.7149 5.56354 52.6555 2.50562 52.1435C2.36933 52.1208 2.24526 52.0369 1.86084 51.8744C4.00313 51.8325 5.85185 51.5145 7.70058 51.1737C14.4717 49.9261 20.8915 47.6423 27.0458 44.6001C41.5753 37.4184 53.1447 26.7961 62.6696 13.8183C63.1117 13.2172 63.9505 12.6003 63.8107 11.9643C63.6918 11.4261 62.757 11.0661 62.1786 10.6328C61.3486 10.0107 60.5151 9.39216 59.5925 8.70369Z" fill="#02B573"/>
<path d="M35.5032 8.37169C35.5032 8.37169 45.8546 14.3792 57.0221 14.4718C57.0221 14.4718 45.8389 28.8405 35.5032 34.9196V27.9249C35.5032 27.9249 39.9415 22.5255 41.128 17.6957C41.128 17.6957 37.9355 22.0292 35.5032 24.3847V8.37169Z" fill="#236A7B"/>
<path d="M1.86279 51.8744C1.86279 51.8744 11.6202 51.7713 18.3353 50.0746C24.3883 48.5474 30.4744 45.6136 35.5016 42.5801C40.5288 39.5467 47.9359 34.5492 50.5221 32.0504C53.1099 29.5517 62.3885 20.3622 66.4931 13.7589L74.6935 1.62856L72.1703 17.9508L68.6354 15.7212C68.6354 15.7212 60.9626 29.328 44.4604 39.69C44.4604 39.69 29.4487 49.692 18.3353 51.4865C9.12141 52.9753 5.15136 52.7673 1.86279 51.8744Z" fill="#006A43"/>
<path d="M35.5032 49.6535C35.5032 49.6535 53.0958 40.0866 62.1455 30.4481C62.1455 30.4481 51.6053 49.7479 35.5032 57.2406C35.5032 57.2406 43.2668 55.9948 60.489 40.5112C60.489 40.5112 54.0621 65.5477 35.5032 67.0015V49.6535Z" fill="#236A7B"/>
<path d="M95.1782 31V19.64H96.2982V31H95.1782ZM100.267 21.704V31H99.1469V19.64H100.075L107.531 29.112V19.656H108.651V31H107.611L100.267 21.704ZM111.458 19.64L115.522 29.608L119.57 19.64H120.738L116.034 31H115.01L110.29 19.64H111.458ZM122.366 31V19.64H123.486V31H122.366ZM132.974 21.768C132.814 21.5867 132.628 21.4267 132.414 21.288C132.201 21.1387 131.961 21.0107 131.694 20.904C131.428 20.7973 131.14 20.712 130.83 20.648C130.532 20.584 130.212 20.552 129.87 20.552C128.878 20.552 128.148 20.744 127.678 21.128C127.22 21.5013 126.99 22.0133 126.99 22.664C126.99 23.112 127.097 23.464 127.31 23.72C127.534 23.976 127.881 24.184 128.35 24.344C128.82 24.504 129.417 24.6693 130.142 24.84C130.953 25.0107 131.652 25.2133 132.238 25.448C132.825 25.6827 133.278 26.0027 133.598 26.408C133.918 26.8027 134.078 27.3413 134.078 28.024C134.078 28.5467 133.977 29 133.774 29.384C133.572 29.768 133.289 30.088 132.926 30.344C132.564 30.6 132.132 30.792 131.63 30.92C131.129 31.0373 130.58 31.096 129.982 31.096C129.396 31.096 128.83 31.0373 128.286 30.92C127.753 30.792 127.246 30.6107 126.766 30.376C126.286 30.1307 125.838 29.8213 125.422 29.448L125.982 28.536C126.185 28.7493 126.425 28.952 126.702 29.144C126.99 29.3253 127.305 29.4907 127.646 29.64C127.998 29.7893 128.372 29.9067 128.766 29.992C129.172 30.0667 129.588 30.104 130.014 30.104C130.921 30.104 131.625 29.9387 132.126 29.608C132.638 29.2773 132.894 28.7867 132.894 28.136C132.894 27.6667 132.766 27.2933 132.51 27.016C132.254 26.728 131.87 26.4933 131.358 26.312C130.846 26.1307 130.217 25.9547 129.47 25.784C128.681 25.6027 128.014 25.4 127.47 25.176C126.926 24.952 126.516 24.6587 126.238 24.296C125.972 23.9227 125.838 23.432 125.838 22.824C125.838 22.12 126.009 21.528 126.35 21.048C126.702 20.5573 127.182 20.1893 127.79 19.944C128.398 19.688 129.097 19.56 129.886 19.56C130.388 19.56 130.852 19.6133 131.278 19.72C131.716 19.816 132.116 19.96 132.478 20.152C132.852 20.344 133.198 20.584 133.518 20.872L132.974 21.768ZM144.102 20.632H140.054V31H138.934V20.632H134.886V19.64H144.102V20.632ZM148.229 19.64H149.173L153.893 31H152.709L151.237 27.448H146.133L144.677 31H143.477L148.229 19.64ZM150.981 26.568L148.693 20.952L146.373 26.568H150.981ZM159.1 31V19.64H166.556V20.632H160.22V24.808H165.564V25.736H160.22V31H159.1ZM172.879 31.08C172.079 31.08 171.354 30.92 170.703 30.6C170.052 30.28 169.492 29.848 169.023 29.304C168.554 28.7493 168.191 28.1307 167.935 27.448C167.679 26.7547 167.551 26.0453 167.551 25.32C167.551 24.5627 167.684 23.8427 167.951 23.16C168.218 22.4667 168.591 21.8533 169.071 21.32C169.562 20.776 170.132 20.3493 170.783 20.04C171.434 19.72 172.138 19.56 172.895 19.56C173.695 19.56 174.42 19.7253 175.071 20.056C175.722 20.3867 176.276 20.8293 176.735 21.384C177.204 21.9387 177.567 22.5573 177.823 23.24C178.079 23.9227 178.207 24.6213 178.207 25.336C178.207 26.0933 178.074 26.8187 177.807 27.512C177.54 28.1947 177.167 28.808 176.687 29.352C176.207 29.8853 175.642 30.3067 174.991 30.616C174.34 30.9253 173.636 31.08 172.879 31.08ZM168.671 25.32C168.671 25.9387 168.772 26.536 168.975 27.112C169.178 27.6773 169.466 28.184 169.839 28.632C170.212 29.0693 170.655 29.4213 171.167 29.688C171.69 29.944 172.26 30.072 172.879 30.072C173.53 30.072 174.111 29.9387 174.623 29.672C175.146 29.3947 175.588 29.032 175.951 28.584C176.324 28.1253 176.607 27.6133 176.799 27.048C176.991 26.4827 177.087 25.9067 177.087 25.32C177.087 24.7013 176.986 24.1093 176.783 23.544C176.58 22.9787 176.287 22.472 175.903 22.024C175.53 21.576 175.087 21.224 174.575 20.968C174.063 20.712 173.498 20.584 172.879 20.584C172.239 20.584 171.658 20.7173 171.135 20.984C170.623 21.2507 170.18 21.6133 169.807 22.072C169.444 22.52 169.162 23.0267 168.959 23.592C168.767 24.1573 168.671 24.7333 168.671 25.32ZM180.319 31V19.64H185.119C185.609 19.64 186.057 19.7413 186.463 19.944C186.868 20.1467 187.22 20.424 187.519 20.776C187.828 21.1173 188.063 21.5013 188.223 21.928C188.393 22.344 188.479 22.7707 188.479 23.208C188.479 23.752 188.372 24.264 188.159 24.744C187.956 25.224 187.663 25.6293 187.279 25.96C186.905 26.2907 186.463 26.5093 185.951 26.616L188.735 31H187.471L184.799 26.808H181.439V31H180.319ZM181.439 25.816H185.151C185.599 25.816 185.988 25.6933 186.319 25.448C186.649 25.2027 186.905 24.8827 187.087 24.488C187.268 24.0827 187.359 23.656 187.359 23.208C187.359 22.7493 187.252 22.328 187.039 21.944C186.836 21.5493 186.559 21.2347 186.207 21C185.865 20.7547 185.481 20.632 185.055 20.632H181.439V25.816ZM198.404 30.008V31H190.772V19.64H198.26V20.632H191.892V24.728H197.444V25.672H191.892V30.008H198.404ZM200.522 31V19.64H201.642V31H200.522ZM209.051 31.08C208.293 31.08 207.589 30.92 206.939 30.6C206.288 30.2693 205.723 29.8267 205.243 29.272C204.763 28.7173 204.389 28.0987 204.123 27.416C203.867 26.7333 203.739 26.0293 203.739 25.304C203.739 24.536 203.867 23.8107 204.123 23.128C204.389 22.4347 204.757 21.8213 205.227 21.288C205.696 20.7547 206.251 20.3333 206.891 20.024C207.531 19.7147 208.229 19.56 208.987 19.56C210.107 19.56 211.019 19.7893 211.723 20.248C212.427 20.7067 212.96 21.304 213.323 22.04L212.459 22.616C212.096 21.912 211.611 21.3947 211.003 21.064C210.395 20.7333 209.717 20.568 208.971 20.568C208.341 20.568 207.771 20.7013 207.259 20.968C206.757 21.2347 206.325 21.592 205.963 22.04C205.6 22.488 205.323 22.9947 205.131 23.56C204.949 24.1253 204.859 24.712 204.859 25.32C204.859 25.96 204.965 26.568 205.179 27.144C205.392 27.7093 205.696 28.216 206.091 28.664C206.485 29.1013 206.939 29.448 207.451 29.704C207.973 29.9493 208.533 30.072 209.131 30.072C209.824 30.072 210.48 29.9013 211.099 29.56C211.717 29.208 212.309 28.6693 212.875 27.944V29.128C211.797 30.4293 210.523 31.08 209.051 31.08ZM212.699 26.28H210.171V25.416H213.643V31H212.699V26.28ZM217.064 21.704V31H215.944V19.64H216.872L224.328 29.112V19.656H225.448V31H224.408L217.064 21.704ZM95.1782 50V38.64H96.2982V50H95.1782ZM100.267 40.704V50H99.1469V38.64H100.075L107.531 48.112V38.656H108.651V50H107.611L100.267 40.704ZM111.458 38.64L115.522 48.608L119.57 38.64H120.738L116.034 50H115.01L110.29 38.64H111.458ZM129.998 49.008V50H122.366V38.64H129.854V39.632H123.486V43.728H129.038V44.672H123.486V49.008H129.998ZM138.693 40.768C138.533 40.5867 138.346 40.4267 138.133 40.288C137.92 40.1387 137.68 40.0107 137.413 39.904C137.146 39.7973 136.858 39.712 136.549 39.648C136.25 39.584 135.93 39.552 135.589 39.552C134.597 39.552 133.866 39.744 133.397 40.128C132.938 40.5013 132.709 41.0133 132.709 41.664C132.709 42.112 132.816 42.464 133.029 42.72C133.253 42.976 133.6 43.184 134.069 43.344C134.538 43.504 135.136 43.6693 135.861 43.84C136.672 44.0107 137.37 44.2133 137.957 44.448C138.544 44.6827 138.997 45.0027 139.317 45.408C139.637 45.8027 139.797 46.3413 139.797 47.024C139.797 47.5467 139.696 48 139.493 48.384C139.29 48.768 139.008 49.088 138.645 49.344C138.282 49.6 137.85 49.792 137.349 49.92C136.848 50.0373 136.298 50.096 135.701 50.096C135.114 50.096 134.549 50.0373 134.005 49.92C133.472 49.792 132.965 49.6107 132.485 49.376C132.005 49.1307 131.557 48.8213 131.141 48.448L131.701 47.536C131.904 47.7493 132.144 47.952 132.421 48.144C132.709 48.3253 133.024 48.4907 133.365 48.64C133.717 48.7893 134.09 48.9067 134.485 48.992C134.89 49.0667 135.306 49.104 135.733 49.104C136.64 49.104 137.344 48.9387 137.845 48.608C138.357 48.2773 138.613 47.7867 138.613 47.136C138.613 46.6667 138.485 46.2933 138.229 46.016C137.973 45.728 137.589 45.4933 137.077 45.312C136.565 45.1307 135.936 44.9547 135.189 44.784C134.4 44.6027 133.733 44.4 133.189 44.176C132.645 43.952 132.234 43.6587 131.957 43.296C131.69 42.9227 131.557 42.432 131.557 41.824C131.557 41.12 131.728 40.528 132.069 40.048C132.421 39.5573 132.901 39.1893 133.509 38.944C134.117 38.688 134.816 38.56 135.605 38.56C136.106 38.56 136.57 38.6133 136.997 38.72C137.434 38.816 137.834 38.96 138.197 39.152C138.57 39.344 138.917 39.584 139.237 39.872L138.693 40.768ZM149.82 39.632H145.772V50H144.652V39.632H140.604V38.64H149.82V39.632ZM161.586 50V40.752L157.474 47.936H156.77L152.642 40.752V50H151.522V38.64H152.674L157.106 46.416L161.57 38.64H162.706V50H161.586ZM173.185 49.008V50H165.553V38.64H173.041V39.632H166.673V43.728H172.225V44.672H166.673V49.008H173.185ZM176.423 40.704V50H175.303V38.64H176.231L183.687 48.112V38.656H184.807V50H183.767L176.423 40.704ZM195.727 39.632H191.679V50H190.559V39.632H186.511V38.64H195.727V39.632ZM204.068 40.768C203.908 40.5867 203.721 40.4267 203.508 40.288C203.295 40.1387 203.055 40.0107 202.788 39.904C202.521 39.7973 202.233 39.712 201.924 39.648C201.625 39.584 201.305 39.552 200.964 39.552C199.972 39.552 199.241 39.744 198.772 40.128C198.313 40.5013 198.084 41.0133 198.084 41.664C198.084 42.112 198.191 42.464 198.404 42.72C198.628 42.976 198.975 43.184 199.444 43.344C199.913 43.504 200.511 43.6693 201.236 43.84C202.047 44.0107 202.745 44.2133 203.332 44.448C203.919 44.6827 204.372 45.0027 204.692 45.408C205.012 45.8027 205.172 46.3413 205.172 47.024C205.172 47.5467 205.071 48 204.868 48.384C204.665 48.768 204.383 49.088 204.02 49.344C203.657 49.6 203.225 49.792 202.724 49.92C202.223 50.0373 201.673 50.096 201.076 50.096C200.489 50.096 199.924 50.0373 199.38 49.92C198.847 49.792 198.34 49.6107 197.86 49.376C197.38 49.1307 196.932 48.8213 196.516 48.448L197.076 47.536C197.279 47.7493 197.519 47.952 197.796 48.144C198.084 48.3253 198.399 48.4907 198.74 48.64C199.092 48.7893 199.465 48.9067 199.86 48.992C200.265 49.0667 200.681 49.104 201.108 49.104C202.015 49.104 202.719 48.9387 203.22 48.608C203.732 48.2773 203.988 47.7867 203.988 47.136C203.988 46.6667 203.86 46.2933 203.604 46.016C203.348 45.728 202.964 45.4933 202.452 45.312C201.94 45.1307 201.311 44.9547 200.564 44.784C199.775 44.6027 199.108 44.4 198.564 44.176C198.02 43.952 197.609 43.6587 197.332 43.296C197.065 42.9227 196.932 42.432 196.932 41.824C196.932 41.12 197.103 40.528 197.444 40.048C197.796 39.5573 198.276 39.1893 198.884 38.944C199.492 38.688 200.191 38.56 200.98 38.56C201.481 38.56 201.945 38.6133 202.372 38.72C202.809 38.816 203.209 38.96 203.572 39.152C203.945 39.344 204.292 39.584 204.612 39.872L204.068 40.768ZM211.225 50V38.64H212.345V49.008H218.905V50H211.225ZM226.836 39.632H222.788V50H221.668V39.632H217.62V38.64H226.836V39.632ZM228.538 50V38.64H232.394C233.599 38.64 234.602 38.896 235.402 39.408C236.212 39.9093 236.82 40.592 237.226 41.456C237.631 42.3093 237.834 43.2587 237.834 44.304C237.834 45.456 237.61 46.4587 237.162 47.312C236.724 48.1653 236.095 48.8267 235.274 49.296C234.463 49.7653 233.503 50 232.394 50H228.538ZM236.714 44.304C236.714 43.3973 236.543 42.592 236.202 41.888C235.871 41.184 235.386 40.6347 234.746 40.24C234.106 39.8347 233.322 39.632 232.394 39.632H229.658V49.008H232.394C233.332 49.008 234.122 48.8 234.762 48.384C235.402 47.968 235.887 47.408 236.218 46.704C236.548 45.9893 236.714 45.1893 236.714 44.304Z" fill="white"/>
</svg>
