<svg width="63" height="59" viewBox="0 0 63 59" fill="none" xmlns="http://www.w3.org/2000/svg">
<path d="M44.6668 29.4C52.7168 29.4 59.2501 22.8667 59.2501 14.8167C59.2501 6.76667 52.7168 0.233337 44.6668 0.233337C36.6168 0.233337 30.0835 6.76667 30.0835 14.8167C30.0835 22.8667 36.6168 29.4 44.6668 29.4ZM60.5626 45.7333C59.4251 44.5667 57.996 43.9833 56.3335 43.9833H35.9168L29.8501 41.8542L30.8126 39.1125L35.9168 41.0667H44.0835C45.1043 41.0667 45.921 40.6583 46.5918 39.9875C47.2626 39.3167 47.5835 38.5 47.5835 37.5958C47.5835 36.0208 46.8251 34.9417 45.3084 34.3292L24.1043 26.4833H18.4168V52.7333L38.8335 58.5667L62.2543 49.8167C62.2835 48.2708 61.7001 46.9 60.5626 45.7333ZM12.5835 26.4833H0.870117V58.5667H12.5835V26.4833Z" fill="#02B573"/>
</svg>
